<mxfile host="app.diagrams.net" agent="Mozilla/5.0 (Windows NT 10.0; Win64; x64; rv:138.0) Gecko/20100101 Firefox/138.0" version="27.0.6">
  <diagram name="Page-1" id="sTWzcJT4MsOkPQKTEC2A">
    <mxGraphModel dx="1144" dy="621" grid="1" gridSize="10" guides="1" tooltips="1" connect="1" arrows="1" fold="1" page="1" pageScale="1" pageWidth="850" pageHeight="1100" math="0" shadow="0">
      <root>
        <mxCell id="0" />
        <mxCell id="1" parent="0" />
        <mxCell id="9c_cNqB-z3H9Ymf96pF2-4" value="USUARIO" style="verticalAlign=top;align=left;spacingTop=8;spacingLeft=2;spacingRight=12;shape=cube;size=10;direction=south;fontStyle=4;html=1;whiteSpace=wrap;" parent="1" vertex="1">
          <mxGeometry x="150" y="140" width="220" height="150" as="geometry" />
        </mxCell>
        <mxCell id="9c_cNqB-z3H9Ymf96pF2-6" value="&lt;div&gt;Interfaces&lt;/div&gt;&lt;div&gt;GUI&lt;/div&gt;" style="shape=module;align=left;spacingLeft=20;align=center;verticalAlign=top;whiteSpace=wrap;html=1;" parent="1" vertex="1">
          <mxGeometry x="200" y="180" width="140" height="60" as="geometry" />
        </mxCell>
        <mxCell id="9c_cNqB-z3H9Ymf96pF2-8" value="Usuario" style="shape=umlActor;verticalLabelPosition=bottom;verticalAlign=top;html=1;" parent="1" vertex="1">
          <mxGeometry x="50" y="175" width="30" height="60" as="geometry" />
        </mxCell>
        <mxCell id="9c_cNqB-z3H9Ymf96pF2-9" style="edgeStyle=orthogonalEdgeStyle;rounded=0;orthogonalLoop=1;jettySize=auto;html=1;entryX=0.429;entryY=1.009;entryDx=0;entryDy=0;entryPerimeter=0;" parent="1" source="9c_cNqB-z3H9Ymf96pF2-8" target="9c_cNqB-z3H9Ymf96pF2-4" edge="1">
          <mxGeometry relative="1" as="geometry" />
        </mxCell>
        <mxCell id="9c_cNqB-z3H9Ymf96pF2-11" value="SERVIDOR" style="verticalAlign=top;align=left;spacingTop=8;spacingLeft=2;spacingRight=12;shape=cube;size=10;direction=south;fontStyle=4;html=1;whiteSpace=wrap;" parent="1" vertex="1">
          <mxGeometry x="480" y="60" width="340" height="330" as="geometry" />
        </mxCell>
        <mxCell id="9c_cNqB-z3H9Ymf96pF2-19" style="edgeStyle=orthogonalEdgeStyle;rounded=0;orthogonalLoop=1;jettySize=auto;html=1;entryX=0.5;entryY=0;entryDx=0;entryDy=0;" parent="1" source="9c_cNqB-z3H9Ymf96pF2-12" target="9c_cNqB-z3H9Ymf96pF2-13" edge="1">
          <mxGeometry relative="1" as="geometry" />
        </mxCell>
        <mxCell id="9c_cNqB-z3H9Ymf96pF2-12" value="Aplicación" style="shape=module;align=left;spacingLeft=20;align=center;verticalAlign=top;whiteSpace=wrap;html=1;" parent="1" vertex="1">
          <mxGeometry x="550" y="125" width="160" height="50" as="geometry" />
        </mxCell>
        <mxCell id="9c_cNqB-z3H9Ymf96pF2-20" style="edgeStyle=orthogonalEdgeStyle;rounded=0;orthogonalLoop=1;jettySize=auto;html=1;entryX=0;entryY=0.5;entryDx=0;entryDy=0;" parent="1" source="9c_cNqB-z3H9Ymf96pF2-13" target="9c_cNqB-z3H9Ymf96pF2-15" edge="1">
          <mxGeometry relative="1" as="geometry" />
        </mxCell>
        <mxCell id="9c_cNqB-z3H9Ymf96pF2-13" value="&lt;p style=&quot;margin:0px;margin-top:4px;text-align:center;&quot;&gt;&lt;b&gt;Controlador&lt;/b&gt;&lt;/p&gt;&lt;hr size=&quot;1&quot; style=&quot;border-style:solid;&quot;&gt;&lt;div style=&quot;height:2px;&quot;&gt;Clases&lt;/div&gt;" style="verticalAlign=top;align=left;overflow=fill;html=1;whiteSpace=wrap;" parent="1" vertex="1">
          <mxGeometry x="500" y="210" width="120" height="60" as="geometry" />
        </mxCell>
        <mxCell id="9c_cNqB-z3H9Ymf96pF2-26" style="edgeStyle=orthogonalEdgeStyle;rounded=0;orthogonalLoop=1;jettySize=auto;html=1;" parent="1" source="9c_cNqB-z3H9Ymf96pF2-15" target="9c_cNqB-z3H9Ymf96pF2-23" edge="1">
          <mxGeometry relative="1" as="geometry" />
        </mxCell>
        <mxCell id="9c_cNqB-z3H9Ymf96pF2-15" value="&lt;p style=&quot;margin:0px;margin-top:4px;text-align:center;&quot;&gt;&lt;b&gt;Modelo&lt;/b&gt;&lt;/p&gt;&lt;hr size=&quot;1&quot; style=&quot;border-style:solid;&quot;&gt;&lt;div style=&quot;height:2px;&quot;&gt;Clases&lt;/div&gt;" style="verticalAlign=top;align=left;overflow=fill;html=1;whiteSpace=wrap;" parent="1" vertex="1">
          <mxGeometry x="660" y="210" width="120" height="60" as="geometry" />
        </mxCell>
        <mxCell id="9c_cNqB-z3H9Ymf96pF2-27" style="edgeStyle=orthogonalEdgeStyle;rounded=0;orthogonalLoop=1;jettySize=auto;html=1;" parent="1" source="9c_cNqB-z3H9Ymf96pF2-16" target="9c_cNqB-z3H9Ymf96pF2-4" edge="1">
          <mxGeometry relative="1" as="geometry" />
        </mxCell>
        <mxCell id="9c_cNqB-z3H9Ymf96pF2-16" value="&lt;p style=&quot;margin:0px;margin-top:4px;text-align:center;&quot;&gt;&lt;b&gt;Vista&lt;/b&gt;&lt;/p&gt;&lt;hr size=&quot;1&quot; style=&quot;border-style:solid;&quot;&gt;&lt;div style=&quot;height:2px;&quot;&gt;Clases&lt;/div&gt;" style="verticalAlign=top;align=left;overflow=fill;html=1;whiteSpace=wrap;" parent="1" vertex="1">
          <mxGeometry x="580" y="310" width="120" height="60" as="geometry" />
        </mxCell>
        <mxCell id="9c_cNqB-z3H9Ymf96pF2-17" value="" style="html=1;points=[[0,0,0,0,5],[0,1,0,0,-5],[1,0,0,0,5],[1,1,0,0,-5]];perimeter=orthogonalPerimeter;outlineConnect=0;targetShapes=umlLifeline;portConstraint=eastwest;newEdgeStyle={&quot;curved&quot;:0,&quot;rounded&quot;:0};" parent="1" vertex="1">
          <mxGeometry x="160" y="180" width="10" height="80" as="geometry" />
        </mxCell>
        <mxCell id="9c_cNqB-z3H9Ymf96pF2-18" style="edgeStyle=orthogonalEdgeStyle;rounded=0;orthogonalLoop=1;jettySize=auto;html=1;entryX=-0.037;entryY=0.452;entryDx=0;entryDy=0;entryPerimeter=0;" parent="1" source="9c_cNqB-z3H9Ymf96pF2-4" target="9c_cNqB-z3H9Ymf96pF2-12" edge="1">
          <mxGeometry relative="1" as="geometry" />
        </mxCell>
        <mxCell id="9c_cNqB-z3H9Ymf96pF2-21" style="edgeStyle=orthogonalEdgeStyle;rounded=0;orthogonalLoop=1;jettySize=auto;html=1;entryX=0.567;entryY=0.02;entryDx=0;entryDy=0;entryPerimeter=0;" parent="1" source="9c_cNqB-z3H9Ymf96pF2-15" target="9c_cNqB-z3H9Ymf96pF2-16" edge="1">
          <mxGeometry relative="1" as="geometry" />
        </mxCell>
        <mxCell id="9c_cNqB-z3H9Ymf96pF2-22" style="edgeStyle=orthogonalEdgeStyle;rounded=0;orthogonalLoop=1;jettySize=auto;html=1;entryX=0.44;entryY=-0.047;entryDx=0;entryDy=0;entryPerimeter=0;" parent="1" source="9c_cNqB-z3H9Ymf96pF2-13" target="9c_cNqB-z3H9Ymf96pF2-16" edge="1">
          <mxGeometry relative="1" as="geometry" />
        </mxCell>
        <mxCell id="9c_cNqB-z3H9Ymf96pF2-23" value="&lt;div&gt;BDD&lt;/div&gt;&lt;div&gt;Datos&lt;/div&gt;" style="shape=cylinder3;whiteSpace=wrap;html=1;boundedLbl=1;backgroundOutline=1;size=15;" parent="1" vertex="1">
          <mxGeometry x="680" y="440" width="80" height="100" as="geometry" />
        </mxCell>
        <mxCell id="dmggBoC71pHL4ylJLq7L-1" value="DIAGRAMA DE DESPLIEGUE DEL SISTEMA DE PLANIFICACIÓN FINANCIERA PERSONAL" style="text;html=1;align=center;verticalAlign=middle;whiteSpace=wrap;rounded=0;" vertex="1" parent="1">
          <mxGeometry x="130" y="20" width="610" height="30" as="geometry" />
        </mxCell>
      </root>
    </mxGraphModel>
  </diagram>
</mxfile>
